<svg width="498" height="253" viewBox="0 0 498 253" fill="none" xmlns="http://www.w3.org/2000/svg">
<path d="M135.243 62.5994V58.2134H143.437V82.9994H138.541V62.5994H135.243ZM155.891 83.3054C154.35 83.3054 152.967 83.0334 151.743 82.4894C150.519 81.9227 149.544 81.1634 148.819 80.2114C148.116 79.2594 147.731 78.2054 147.663 77.0494H152.457C152.548 77.7747 152.899 78.3754 153.511 78.8514C154.146 79.3274 154.928 79.5654 155.857 79.5654C156.764 79.5654 157.466 79.3841 157.965 79.0214C158.486 78.6587 158.747 78.1941 158.747 77.6274C158.747 77.0154 158.43 76.5621 157.795 76.2674C157.183 75.9501 156.197 75.6101 154.837 75.2474C153.432 74.9074 152.276 74.5561 151.369 74.1934C150.485 73.8307 149.714 73.2754 149.057 72.5274C148.422 71.7794 148.105 70.7707 148.105 69.5014C148.105 68.4587 148.4 67.5067 148.989 66.6454C149.601 65.7841 150.462 65.1041 151.573 64.6054C152.706 64.1067 154.032 63.8574 155.551 63.8574C157.795 63.8574 159.586 64.4241 160.923 65.5574C162.26 66.6681 162.997 68.1754 163.133 70.0794H158.577C158.509 69.3314 158.192 68.7421 157.625 68.3114C157.081 67.8581 156.344 67.6314 155.415 67.6314C154.554 67.6314 153.885 67.7901 153.409 68.1074C152.956 68.4247 152.729 68.8667 152.729 69.4334C152.729 70.0681 153.046 70.5554 153.681 70.8954C154.316 71.2127 155.302 71.5414 156.639 71.8814C157.999 72.2214 159.121 72.5727 160.005 72.9354C160.889 73.2981 161.648 73.8647 162.283 74.6354C162.94 75.3834 163.28 76.3807 163.303 77.6274C163.303 78.7154 162.997 79.6901 162.385 80.5514C161.796 81.4127 160.934 82.0927 159.801 82.5914C158.69 83.0674 157.387 83.3054 155.891 83.3054ZM172.752 68.0734V77.1854C172.752 77.8201 172.9 78.2847 173.194 78.5794C173.512 78.8514 174.033 78.9874 174.758 78.9874H176.968V82.9994H173.976C169.964 82.9994 167.958 81.0501 167.958 77.1514V68.0734H165.714V64.1634H167.958V59.5054H172.752V64.1634H176.968V68.0734H172.752ZM193.253 66.8834C193.865 66.0221 194.704 65.3081 195.769 64.7414C196.857 64.1521 198.093 63.8574 199.475 63.8574C201.085 63.8574 202.535 64.2541 203.827 65.0474C205.142 65.8407 206.173 66.9741 206.921 68.4474C207.692 69.8981 208.077 71.5867 208.077 73.5134C208.077 75.4401 207.692 77.1514 206.921 78.6474C206.173 80.1207 205.142 81.2654 203.827 82.0814C202.535 82.8974 201.085 83.3054 199.475 83.3054C198.093 83.3054 196.869 83.0221 195.803 82.4554C194.761 81.8887 193.911 81.1747 193.253 80.3134V91.9754H188.493V64.1634H193.253V66.8834ZM203.215 73.5134C203.215 72.3801 202.977 71.4054 202.501 70.5894C202.048 69.7507 201.436 69.1161 200.665 68.6854C199.917 68.2547 199.101 68.0394 198.217 68.0394C197.356 68.0394 196.54 68.2661 195.769 68.7194C195.021 69.1501 194.409 69.7847 193.933 70.6234C193.48 71.4621 193.253 72.4481 193.253 73.5814C193.253 74.7147 193.48 75.7007 193.933 76.5394C194.409 77.3781 195.021 78.0241 195.769 78.4774C196.54 78.9081 197.356 79.1234 198.217 79.1234C199.101 79.1234 199.917 78.8967 200.665 78.4434C201.436 77.9901 202.048 77.3441 202.501 76.5054C202.977 75.6667 203.215 74.6694 203.215 73.5134ZM216.296 57.8394V82.9994H211.536V57.8394H216.296ZM219.775 73.5134C219.775 71.6094 220.149 69.9207 220.897 68.4474C221.668 66.9741 222.699 65.8407 223.991 65.0474C225.306 64.2541 226.768 63.8574 228.377 63.8574C229.783 63.8574 231.007 64.1407 232.049 64.7074C233.115 65.2741 233.965 65.9881 234.599 66.8494V64.1634H239.393V82.9994H234.599V80.2454C233.987 81.1294 233.137 81.8661 232.049 82.4554C230.984 83.0221 229.749 83.3054 228.343 83.3054C226.757 83.3054 225.306 82.8974 223.991 82.0814C222.699 81.2654 221.668 80.1207 220.897 78.6474C220.149 77.1514 219.775 75.4401 219.775 73.5134ZM234.599 73.5814C234.599 72.4254 234.373 71.4394 233.919 70.6234C233.466 69.7847 232.854 69.1501 232.083 68.7194C231.313 68.2661 230.485 68.0394 229.601 68.0394C228.717 68.0394 227.901 68.2547 227.153 68.6854C226.405 69.1161 225.793 69.7507 225.317 70.5894C224.864 71.4054 224.637 72.3801 224.637 73.5134C224.637 74.6467 224.864 75.6441 225.317 76.5054C225.793 77.3441 226.405 77.9901 227.153 78.4434C227.924 78.8967 228.74 79.1234 229.601 79.1234C230.485 79.1234 231.313 78.9081 232.083 78.4774C232.854 78.0241 233.466 77.3894 233.919 76.5734C234.373 75.7347 234.599 74.7374 234.599 73.5814ZM242.818 73.5814C242.818 71.6321 243.215 69.9321 244.008 68.4814C244.802 67.0081 245.901 65.8747 247.306 65.0814C248.712 64.2654 250.321 63.8574 252.134 63.8574C254.469 63.8574 256.396 64.4467 257.914 65.6254C259.456 66.7814 260.487 68.4134 261.008 70.5214H255.874C255.602 69.7054 255.138 69.0707 254.48 68.6174C253.846 68.1414 253.052 67.9034 252.1 67.9034C250.74 67.9034 249.664 68.4021 248.87 69.3994C248.077 70.3741 247.68 71.7681 247.68 73.5814C247.68 75.3721 248.077 76.7661 248.87 77.7634C249.664 78.7381 250.74 79.2254 252.1 79.2254C254.027 79.2254 255.285 78.3641 255.874 76.6414H261.008C260.487 78.6814 259.456 80.3021 257.914 81.5034C256.373 82.7047 254.446 83.3054 252.134 83.3054C250.321 83.3054 248.712 82.9087 247.306 82.1154C245.901 81.2994 244.802 80.1661 244.008 78.7154C243.215 77.2421 242.818 75.5307 242.818 73.5814ZM282.005 73.1734C282.005 73.8534 281.96 74.4654 281.869 75.0094H268.099C268.213 76.3694 268.689 77.4347 269.527 78.2054C270.366 78.9761 271.397 79.3614 272.621 79.3614C274.389 79.3614 275.647 78.6021 276.395 77.0834H281.529C280.985 78.8967 279.943 80.3927 278.401 81.5714C276.86 82.7274 274.967 83.3054 272.723 83.3054C270.91 83.3054 269.278 82.9087 267.827 82.1154C266.399 81.2994 265.277 80.1547 264.461 78.6814C263.668 77.2081 263.271 75.5081 263.271 73.5814C263.271 71.6321 263.668 69.9207 264.461 68.4474C265.255 66.9741 266.365 65.8407 267.793 65.0474C269.221 64.2541 270.865 63.8574 272.723 63.8574C274.514 63.8574 276.112 64.2427 277.517 65.0134C278.945 65.7841 280.045 66.8834 280.815 68.3114C281.609 69.7167 282.005 71.3374 282.005 73.1734ZM277.075 71.8134C277.053 70.5894 276.611 69.6147 275.749 68.8894C274.888 68.1414 273.834 67.7674 272.587 67.7674C271.409 67.7674 270.411 68.1301 269.595 68.8554C268.802 69.5581 268.315 70.5441 268.133 71.8134H277.075ZM298.341 66.9174C298.953 66.0107 299.792 65.2741 300.857 64.7074C301.945 64.1407 303.181 63.8574 304.563 63.8574C306.173 63.8574 307.623 64.2541 308.915 65.0474C310.23 65.8407 311.261 66.9741 312.009 68.4474C312.78 69.8981 313.165 71.5867 313.165 73.5134C313.165 75.4401 312.78 77.1514 312.009 78.6474C311.261 80.1207 310.23 81.2654 308.915 82.0814C307.623 82.8974 306.173 83.3054 304.563 83.3054C303.158 83.3054 301.923 83.0334 300.857 82.4894C299.815 81.9227 298.976 81.1974 298.341 80.3134V82.9994H293.581V57.8394H298.341V66.9174ZM308.303 73.5134C308.303 72.3801 308.065 71.4054 307.589 70.5894C307.136 69.7507 306.524 69.1161 305.753 68.6854C305.005 68.2547 304.189 68.0394 303.305 68.0394C302.444 68.0394 301.628 68.2661 300.857 68.7194C300.109 69.1501 299.497 69.7847 299.021 70.6234C298.568 71.4621 298.341 72.4481 298.341 73.5814C298.341 74.7147 298.568 75.7007 299.021 76.5394C299.497 77.3781 300.109 78.0241 300.857 78.4774C301.628 78.9081 302.444 79.1234 303.305 79.1234C304.189 79.1234 305.005 78.8967 305.753 78.4434C306.524 77.9901 307.136 77.3441 307.589 76.5054C308.065 75.6667 308.303 74.6694 308.303 73.5134ZM321.384 67.0874C321.996 66.0901 322.79 65.3081 323.764 64.7414C324.762 64.1747 325.895 63.8914 327.164 63.8914V68.8894H325.906C324.41 68.8894 323.277 69.2407 322.506 69.9434C321.758 70.6461 321.384 71.8701 321.384 73.6154V82.9994H316.624V64.1634H321.384V67.0874ZM348.152 64.1634V82.9994H343.358V80.6194C342.746 81.4354 341.942 82.0814 340.944 82.5574C339.97 83.0107 338.904 83.2374 337.748 83.2374C336.275 83.2374 334.972 82.9314 333.838 82.3194C332.705 81.6847 331.81 80.7667 331.152 79.5654C330.518 78.3414 330.2 76.8907 330.2 75.2134V64.1634H334.96V74.5334C334.96 76.0294 335.334 77.1854 336.082 78.0014C336.83 78.7947 337.85 79.1914 339.142 79.1914C340.457 79.1914 341.488 78.7947 342.236 78.0014C342.984 77.1854 343.358 76.0294 343.358 74.5334V64.1634H348.152ZM363.457 63.8914C364.885 63.8914 366.154 64.2087 367.265 64.8434C368.376 65.4554 369.237 66.3734 369.849 67.5974C370.484 68.7987 370.801 70.2494 370.801 71.9494V82.9994H366.041V72.5954C366.041 71.0994 365.667 69.9547 364.919 69.1614C364.171 68.3454 363.151 67.9374 361.859 67.9374C360.544 67.9374 359.502 68.3454 358.731 69.1614C357.983 69.9547 357.609 71.0994 357.609 72.5954V82.9994H352.849V57.8394H357.609V66.5094C358.221 65.6934 359.037 65.0587 360.057 64.6054C361.077 64.1294 362.21 63.8914 363.457 63.8914Z" fill="white"/>
<path d="M198.586 151.532C195.749 154.341 192.06 155.884 188.1 155.884C184.141 155.884 180.368 154.341 177.577 151.532C174.74 148.723 173.264 145.084 173.264 141.046C173.264 137.008 174.74 133.373 177.577 130.521C180.41 127.712 184.103 126.208 188.1 126.208C192.097 126.208 195.749 127.712 198.586 130.521C201.422 133.369 202.936 137.051 202.936 141.046C202.936 145.041 201.422 148.723 198.586 151.532ZM195.246 133.53C193.341 131.513 190.779 130.441 188.1 130.441C185.422 130.441 182.855 131.513 180.913 133.53C178.97 135.546 177.96 138.199 177.96 141.046C177.96 143.893 178.97 146.507 180.913 148.524C182.855 150.541 185.38 151.609 188.1 151.609C190.82 151.609 193.303 150.541 195.246 148.524C197.188 146.507 198.236 143.897 198.236 141.046C198.236 138.195 197.188 135.546 195.246 133.53ZM214.254 155.13H210.02V126.844H216.858C219.694 126.844 221.944 126.924 223.812 128.31C225.526 129.577 226.611 131.911 226.611 134.64C226.611 137.368 225.526 139.745 223.812 141.008C221.944 142.355 219.694 142.431 216.858 142.431H214.258V155.13H214.254ZM215.693 138.669C219.848 138.669 221.944 138.195 221.944 134.911C221.944 131.627 219.886 130.797 215.693 130.797H214.524V138.669H215.693ZM232.609 126.84H248.111V130.759H237.114V137.843H248.111V141.881H237.114V151.02H248.111V155.134H232.609V126.844V126.84ZM255.198 125.734L272.834 143.025C273.957 144.135 274.93 145.279 275.862 146.469V126.844H280.017V156.24L262.036 138.635C261.025 137.644 260.131 136.576 259.357 135.47V155.134H255.198V125.738V125.734ZM288.302 126.84H295.294C298.247 126.84 300.464 126.958 302.169 128.263C303.883 129.53 304.889 131.708 304.889 134.237C304.889 137.241 303.492 139.343 300.888 140.131C304.112 140.643 306.092 143.296 306.092 147.092C306.092 149.427 305.235 151.562 303.841 152.99C301.862 155.007 299.216 155.125 295.336 155.125H288.302V126.844V126.84ZM294.441 138.788C298.517 138.788 300.348 137.839 300.348 134.873C300.348 131.352 298.443 130.678 294.441 130.678H292.728V138.788H294.441ZM294.283 151.291C296.812 151.291 298.596 151.172 299.682 150.418C300.768 149.668 301.433 148.359 301.433 146.817C301.433 145.037 300.693 143.652 299.299 142.902C298.247 142.347 297.008 142.266 295.643 142.266H292.728V151.287H294.279L294.283 151.291ZM336.721 151.528C333.884 154.337 330.195 155.879 326.235 155.879C322.275 155.879 318.503 154.337 315.712 151.528C312.875 148.719 311.399 145.08 311.399 141.042C311.399 137.004 312.875 133.369 315.712 130.517C318.544 127.708 322.238 126.204 326.235 126.204C330.232 126.204 333.884 127.708 336.721 130.517C339.557 133.364 341.071 137.046 341.071 141.042C341.071 145.037 339.557 148.719 336.721 151.528ZM333.381 133.525C331.476 131.509 328.914 130.437 326.235 130.437C323.556 130.437 320.99 131.509 319.048 133.525C317.105 135.542 316.095 138.195 316.095 141.042C316.095 143.889 317.105 146.503 319.048 148.52C320.99 150.537 323.515 151.604 326.235 151.604C328.955 151.604 331.438 150.537 333.381 148.52C335.323 146.503 336.371 143.893 336.371 141.042C336.371 138.19 335.323 135.542 333.381 133.525ZM372.274 151.528C369.438 154.337 365.749 155.879 361.789 155.879C357.829 155.879 354.057 154.337 351.266 151.528C348.429 148.719 346.953 145.08 346.953 141.042C346.953 137.004 348.429 133.369 351.266 130.517C354.098 127.708 357.792 126.204 361.789 126.204C365.786 126.204 369.438 127.708 372.274 130.517C375.111 133.364 376.625 137.046 376.625 141.042C376.625 145.037 375.111 148.719 372.274 151.528ZM368.935 133.525C367.03 131.509 364.467 130.437 361.789 130.437C359.11 130.437 356.544 131.509 354.602 133.525C352.659 135.542 351.648 138.195 351.648 141.042C351.648 143.889 352.659 146.503 354.602 148.52C356.544 150.537 359.069 151.604 361.789 151.604C364.509 151.604 366.992 150.537 368.935 148.52C370.877 146.503 371.925 143.893 371.925 141.042C371.925 138.19 370.877 135.542 368.935 133.525ZM383.704 126.84H388.209V138.555L398.195 126.84H403.711L392.717 139.423L405.025 155.13H399.202L388.205 140.69V155.13H383.7V126.844L383.704 126.84Z" fill="white"/>
<path d="M148.063 120.927V160.89L160.212 165.559V116.423L148.063 120.927Z" fill="white"/>
<path d="M133.592 117.253V164.563L141.682 168.77V113.211L133.592 117.253Z" fill="white"/>
<path d="M120.798 114.041V167.774L127.208 171.981V109.999L120.798 114.041Z" fill="white"/>
<path d="M75 116.423V165.559L87.1493 160.89V120.927L75 116.423Z" fill="white"/>
<path d="M93.5346 113.211V168.77L101.62 164.563V117.253L93.5346 113.211Z" fill="white"/>
<path d="M108.005 109.999V171.981L114.414 167.774V114.041L108.005 109.999Z" fill="white"/>
<path d="M475.241 173.455C466.174 179.788 464.711 186.684 464.479 188.595C463.041 189.447 461.703 190.198 460.478 190.862C462.397 187.655 464.217 184.392 465.886 181.059C468.663 175.372 471.07 169.522 473.09 163.54C473.315 162.882 473.534 162.224 473.746 161.567C475.316 156.643 477.592 151.971 480.631 147.799C480.837 147.523 481.037 147.242 481.231 146.966L481.225 146.972C506.618 133.048 494.968 104.661 494.968 104.661C495.35 110.931 489.31 115.71 483.1 127.141C477.823 136.869 479.593 143.69 480.237 145.506C478.936 147.511 477.723 149.271 476.672 150.73C477.091 148.901 477.473 147.066 477.829 145.231C479.036 139.042 479.705 132.76 480.012 126.477L480.112 124.116C480.155 123.333 480.18 122.55 480.168 121.761L480.162 117.044C480.124 115.472 480.024 113.906 479.962 112.334C479.918 111.551 479.905 110.761 479.837 109.979L479.618 107.636C479.48 106.082 479.561 104.51 479.874 102.982L481.687 94.0122V94.0186C500.196 71.726 478.955 49.6087 478.955 49.6087C481.606 55.2962 477.748 61.9671 476.16 74.8829C474.815 85.8757 478.961 91.5632 480.23 93.0164C479.705 95.6221 479.167 97.8959 478.686 99.7499L478.48 98.2904C478.298 96.7307 477.936 95.2024 477.654 93.6553L477.21 91.3501C477.066 90.5797 476.916 89.8093 476.716 89.0514C475.96 86.0072 475.272 82.9505 474.303 79.9628L473.621 77.714L473.283 76.5928L472.889 75.4842L471.314 71.062C470.313 68.4939 469.269 65.9383 468.15 63.4202C466.149 58.8978 464.898 54.0621 464.623 49.1263C464.554 47.9801 464.467 46.8526 464.354 45.7501L464.361 45.7565C474.321 18.5343 446.896 4.84169 446.896 4.84169C451.305 9.30772 449.904 16.8931 452.737 29.5897C455.156 40.3946 460.972 44.3596 462.647 45.3054C463.179 49.001 463.466 52.0953 463.617 54.2626C463.573 54.1874 463.535 54.106 463.491 54.0309L462.385 51.9638C462.016 51.2811 461.584 50.6234 461.19 49.9532L458.771 45.9444L456.163 42.0609C455.719 41.4157 455.3 40.758 454.844 40.1254L453.449 38.2525C452.011 36.2481 450.492 34.3127 448.916 32.4147L448.922 32.421C446.728 29.6336 443.726 25.6186 441.119 22.7122C439.893 21.353 438.818 19.8559 438.036 18.196C426.625 -5.89429 398.762 0.876816 398.762 0.876816C405.021 1.27769 409.004 7.87958 419.552 15.465C427.894 21.4656 434.503 21.1086 436.911 20.6952C437.198 20.7891 437.548 20.9019 437.842 20.9959L441.031 24.3407C445.195 28.9321 449.185 33.6862 452.674 38.81L454.012 40.7016C454.444 41.3468 454.85 42.0045 455.269 42.6559L457.751 46.577L458.802 48.4186C456.032 46.0634 453.243 44.0089 450.479 42.23L450.492 42.2362C435.466 17.4506 407.678 30.379 407.678 30.379C413.912 29.7151 418.952 35.5466 430.626 41.2466C440.568 46.0947 447.29 44.0152 449.072 43.2886C453.049 45.6249 456.357 47.9111 458.27 49.2892C459.477 50.1598 460.496 51.281 461.172 52.6089C461.172 52.6152 461.178 52.6215 461.178 52.6278L462.222 54.701C465.105 60.1693 467.424 65.9132 469.513 71.7197L470.957 76.1105L471.32 77.2129L471.62 78.3279L472.233 80.5578C473.115 83.5143 473.715 86.5459 474.378 89.5525C474.559 90.2979 474.684 91.062 474.809 91.8199L474.815 91.8638C472.94 88.9763 470.97 86.3392 468.957 83.9527L468.963 83.9589C461.834 55.8535 431.483 60.0754 431.483 60.0754C437.642 61.2655 440.762 68.3184 450.26 77.1879C458.345 84.7419 465.38 84.7231 467.299 84.5478C469.476 86.9217 471.257 89.0451 472.577 90.6862C474.403 92.9662 475.61 95.7097 475.878 98.6161C475.878 98.6349 475.878 98.6474 475.878 98.6662L476.404 103.251L476.535 104.398L476.61 105.55L476.76 107.855L476.91 110.154C476.966 110.924 476.954 111.689 476.979 112.459C477.004 114 477.06 115.535 477.054 117.069L476.941 121.679C476.935 122.443 476.891 123.214 476.835 123.978L476.672 126.277C476.422 129.59 476.072 132.904 475.591 136.192C474.934 133.43 474.171 130.799 473.308 128.325L473.315 128.331C476.666 99.5306 446.815 92.6217 446.815 92.6217C452.142 95.9353 452.543 103.64 458.252 115.322C463.116 125.268 469.694 127.768 471.545 128.294C472.258 130.085 472.871 131.739 473.383 133.205C474.647 136.806 474.915 140.696 474.096 144.417C474.09 144.435 474.084 144.46 474.078 144.473C472.771 150.461 471.157 156.38 469.031 162.118C466.918 167.862 464.454 173.462 461.634 178.88C460.796 180.446 459.921 181.993 459.021 183.534C459.54 180.283 459.833 177.157 459.946 174.157V174.169C473.602 148.601 448.353 131.213 448.353 131.213C452.099 136.255 449.654 143.565 450.692 156.537C451.58 167.574 456.788 172.315 458.32 173.48C458.32 173.906 458.32 174.32 458.314 174.727C458.277 181.748 456.132 188.62 452.067 194.339C452.049 194.37 452.03 194.395 452.011 194.426C448.497 199.412 444.551 204.066 440.393 208.501C439.33 209.585 438.33 210.731 437.217 211.764L433.928 214.927C433.878 214.884 433.89 214.896 433.84 214.852C434.841 213.073 435.741 211.301 436.554 209.559V209.566C459.033 191.301 442.488 165.469 442.488 165.469C443.982 171.57 438.899 177.358 434.847 189.722C431.395 200.239 434.359 206.628 435.316 208.3C434.653 209.891 434.015 211.351 433.415 212.648C431.958 215.829 429.813 218.661 427.056 220.815C427.043 220.828 427.025 220.84 427.012 220.847C422.272 224.636 417.333 228.175 412.111 231.245C409.073 233.042 405.971 234.727 402.814 236.299C404.133 234.946 405.352 233.575 406.471 232.209L406.465 232.215C428 222.262 420.071 198.404 420.071 198.404C420.034 203.546 414.832 207.117 409.116 216.111C404.252 223.759 405.315 229.434 405.74 230.956C405.04 231.89 404.37 232.754 403.745 233.537C401.688 236.118 399.037 238.178 396.004 239.463C395.985 239.469 395.973 239.481 395.96 239.481C390.383 241.824 384.668 243.797 378.859 245.413L378.79 245.432H378.777C377.202 245.883 376.039 247.286 376.001 248.927C375.939 251.733 378.527 253.518 380.947 252.779C387.05 250.913 393.034 248.67 398.843 246.058C404.646 243.415 410.236 240.333 415.619 236.951C418.865 234.921 422.004 232.723 425.042 230.405C429.169 227.255 434.128 225.382 439.305 224.937H439.293C466.318 235.329 480.399 208.069 480.399 208.069C475.872 212.416 468.325 210.894 455.607 213.549C444.789 215.804 440.737 221.567 439.774 223.233C437.173 223.571 434.872 223.784 432.977 223.928C434.697 222.413 436.36 220.834 438.036 219.275L441.381 215.886C442.513 214.777 443.532 213.556 444.608 212.397C448.822 207.662 452.805 202.707 456.319 197.439C456.388 197.333 456.463 197.226 456.532 197.12C458.258 194.539 460.615 192.453 463.379 191.044C463.829 190.818 464.273 190.58 464.717 190.349L464.711 190.355C493.637 189.271 495.881 158.66 495.881 158.66C493.43 164.435 485.889 166.008 475.241 173.455Z" fill="#5099CC"/>
<path d="M22.3922 173.455C31.4591 179.788 32.9224 186.684 33.1538 188.595C34.592 189.447 35.9301 190.198 37.1557 190.862C35.236 187.655 33.4226 184.392 31.7468 181.059C28.9705 175.372 26.5693 169.522 24.5433 163.54C24.3182 162.882 24.0993 162.224 23.8929 161.567C22.3172 156.643 20.041 151.971 17.0021 147.799C16.802 147.523 16.6019 147.242 16.4018 146.966L16.408 146.972C-8.98563 133.048 2.67012 104.661 2.67012 104.661C2.28243 110.931 8.32283 115.71 14.5321 127.141C19.8097 136.869 18.0401 143.69 17.3961 145.506C18.6967 147.511 19.9098 149.271 20.9603 150.73C20.5476 148.901 20.1599 147.066 19.8035 145.231C18.5966 139.042 17.9275 132.76 17.6211 126.477L17.5211 124.116C17.4773 123.333 17.4523 122.55 17.4648 121.761L17.471 117.044C17.5086 115.472 17.6086 113.906 17.6712 112.334C17.7149 111.551 17.7274 110.761 17.7962 109.979L18.0151 107.636C18.1589 106.082 18.0714 104.51 17.7587 102.982L15.9453 94.0122V94.0186C-2.5637 71.726 18.6779 49.6087 18.6779 49.6087C16.0266 55.2962 19.891 61.9671 21.473 74.8829C22.8174 85.8757 18.6717 91.5632 17.4023 93.0164C17.9275 95.6221 18.4716 97.8959 18.9468 99.7499L19.1531 98.2904C19.3345 96.7307 19.6972 95.2024 19.9786 93.6553L20.4225 91.3501C20.5663 90.5797 20.7164 89.8093 20.9165 89.0514C21.6731 86.0072 22.3672 82.9505 23.3365 79.9628L24.0118 77.714L24.3494 76.5928L24.7434 75.4842L26.3254 71.062C27.3196 68.4939 28.3639 65.9383 29.4832 63.4202C31.4904 58.8978 32.7348 54.0621 33.0162 49.1263C33.0787 47.9801 33.1663 46.8526 33.2788 45.7501L33.2725 45.7565C23.3114 18.5343 50.7373 4.84169 50.7373 4.84169C46.3289 9.30772 47.7296 16.8931 44.897 29.5897C42.477 40.3946 36.668 44.3596 34.9859 45.3054C34.4544 49.001 34.1667 52.0953 34.0167 54.2626C34.0604 54.1874 34.0979 54.106 34.1417 54.0309L35.2548 51.9638C35.6174 51.2811 36.0489 50.6234 36.4428 49.9532L38.8628 45.9444L41.4765 42.0609C41.9143 41.4157 42.3395 40.758 42.7897 40.1254L44.1841 38.2525C45.6286 36.2481 47.1418 34.3127 48.7176 32.4147L48.7113 32.421C50.9062 29.6336 53.9076 25.6186 56.5151 22.7122C57.7407 21.353 58.8162 19.8559 59.5979 18.196C71.0097 -5.89429 98.8733 0.876816 98.8733 0.876816C92.6203 1.27769 88.6308 7.87958 78.0819 15.465C69.7404 21.4656 63.1309 21.1086 60.7234 20.6952C60.4358 20.7891 60.0856 20.9019 59.798 20.9959L56.6027 24.3407C52.4444 28.9321 48.4487 33.6862 44.9657 38.81L43.6213 40.7016C43.1899 41.3468 42.7834 42.0045 42.3645 42.6559L39.882 46.577L38.8315 48.4186C41.6016 46.0634 44.3904 44.0089 47.1543 42.23L47.1418 42.2362C62.1679 17.4506 89.9627 30.379 89.9627 30.379C83.7222 29.7151 78.6822 35.5466 67.0077 41.2466C57.0716 46.0947 50.3496 44.0152 48.5612 43.2886C44.5843 45.6249 41.2765 47.9111 39.363 49.2892C38.1562 50.1598 37.1369 51.281 36.4679 52.6089C36.4616 52.6152 36.4553 52.6215 36.4553 52.6278L35.4111 54.701C32.5284 60.1693 30.2086 65.9132 28.12 71.7197L26.6756 76.1105L26.3129 77.2129L26.0128 78.3279L25.4 80.5578C24.5245 83.5143 23.9242 86.5459 23.2551 89.5525C23.0738 90.2979 22.9488 91.062 22.8237 91.8199L22.8174 91.8638C24.6933 88.9763 26.663 86.3392 28.6765 83.9527L28.6703 83.9589C35.7988 55.8535 66.1511 60.0754 66.1511 60.0754C59.9918 61.2655 56.8778 68.3184 47.3732 77.1879C39.288 84.7419 32.2533 84.7231 30.3336 84.5478C28.1575 86.9217 26.3754 89.0451 25.056 90.6862C23.2302 92.9662 22.0233 95.7097 21.7607 98.6161C21.7544 98.6349 21.7544 98.6474 21.7544 98.6662L21.2292 103.251L21.0978 104.398L21.0228 105.55L20.8727 107.855L20.7226 110.154C20.6726 110.924 20.6789 111.689 20.6539 112.459C20.6351 114 20.5726 115.535 20.5788 117.069L20.6914 121.679C20.6976 122.443 20.7414 123.214 20.804 123.978L20.9603 126.277C21.2104 129.59 21.5606 132.904 22.0421 136.192C22.6986 133.43 23.4615 130.799 24.3244 128.325L24.3181 128.331C20.9665 99.5306 50.8186 92.6217 50.8186 92.6217C45.491 95.9353 45.0971 103.64 39.3818 115.322C34.5169 125.268 27.9387 127.768 26.0878 128.294C25.375 130.085 24.7621 131.739 24.2494 133.205C22.9863 136.806 22.7174 140.696 23.5428 144.417C23.5428 144.435 23.5491 144.46 23.5553 144.473C24.8685 150.461 26.4754 156.38 28.6015 162.118C30.715 167.862 33.185 173.462 35.9989 178.88C36.8431 180.446 37.7185 181.993 38.6127 183.534C38.0937 180.283 37.806 177.157 37.6872 174.157V174.169C24.0305 148.601 49.2803 131.213 49.2803 131.213C45.5348 136.255 47.986 143.565 46.9417 156.537C46.0538 167.574 40.8512 172.315 39.3192 173.48C39.313 173.906 39.313 174.32 39.3192 174.727C39.363 181.748 41.5078 188.62 45.5661 194.339C45.5848 194.37 45.6036 194.395 45.6286 194.426C49.1366 199.412 53.0822 204.066 57.2405 208.501C58.3035 209.585 59.304 210.731 60.4233 211.764L63.7061 214.927C63.7562 214.884 63.7437 214.896 63.7937 214.852C62.7932 213.073 61.8928 211.301 61.0799 209.559V209.566C38.6001 191.301 55.152 165.469 55.152 165.469C53.6512 171.57 58.735 177.358 62.7869 189.722C66.2449 200.239 63.2809 206.628 62.318 208.3C62.9808 209.891 63.6249 211.351 64.2189 212.648C65.6759 215.829 67.8207 218.661 70.5783 220.815C70.597 220.828 70.6095 220.84 70.622 220.847C75.3618 224.636 80.3018 228.175 85.5293 231.245C88.562 233.042 91.6635 234.727 94.8213 236.299C93.5082 234.946 92.2826 233.575 91.1633 232.209L91.1696 232.215C69.6341 222.262 77.5629 198.404 77.5629 198.404C77.6004 203.546 82.8092 207.117 88.5182 216.111C93.3831 223.759 92.3201 229.434 91.8949 230.956C92.5952 231.89 93.2643 232.754 93.8896 233.537C95.9469 236.118 98.5982 238.178 101.631 239.463C101.65 239.469 101.662 239.481 101.681 239.481C107.252 241.824 112.968 243.797 118.777 245.413L118.846 245.432H118.858C120.434 245.883 121.597 247.286 121.634 248.927C121.697 251.733 119.108 253.518 116.688 252.779C110.585 250.913 104.601 248.67 98.792 246.058C92.9892 243.415 87.399 240.333 82.0151 236.951C78.7697 234.921 75.6307 232.723 72.5917 230.405C68.4647 227.255 63.506 225.382 58.3285 224.937H58.341C31.3153 235.329 17.2334 208.069 17.2334 208.069C21.7607 212.416 29.3081 210.894 42.0268 213.549C52.8508 215.804 56.8965 221.567 57.8658 223.233C60.467 223.571 62.7682 223.784 64.6566 223.928C62.9433 222.413 61.2737 220.834 59.5979 219.275L56.2588 215.886C55.1207 214.777 54.1077 213.556 53.0259 212.397C48.8114 207.662 44.8282 202.707 41.314 197.439C41.2452 197.333 41.1701 197.226 41.1014 197.12C39.3755 194.539 37.0181 192.453 34.2543 191.044C33.804 190.818 33.3601 190.58 32.9161 190.349L32.9224 190.355C4.002 189.271 1.75091 158.66 1.75091 158.66C4.2021 164.435 11.7433 166.008 22.3922 173.455Z" fill="#5099CC"/>
</svg>
