<svg width="311" height="253" viewBox="0 0 311 253" fill="none" xmlns="http://www.w3.org/2000/svg">
<path d="M209.949 187.907C206.942 188.534 201.624 187.125 199.048 186.596C196.472 186.066 194.273 184.946 192.448 183.236C190.663 181.518 189.465 179.252 188.852 176.436L196.883 174.763C198.621 174.401 200.417 174.335 202.125 174.776C203.451 175.119 204.341 175.451 204.724 175.653C205.161 176.681 204.093 178.379 205.538 178.078C207.022 177.769 208.128 177.176 208.855 176.3C209.575 175.382 209.815 174.287 209.575 173.015C209.374 171.948 208.856 171.139 208.021 170.588C207.226 170.028 206.278 169.629 205.178 169.389C204.116 169.141 202.614 168.921 200.67 168.728C197.852 168.42 195.522 168.009 193.68 167.497C191.839 166.985 190.154 166.014 188.626 164.584C187.098 163.153 186.079 161.084 185.568 158.375C184.809 154.354 185.603 150.926 187.95 148.091C190.289 145.215 193.685 143.314 198.137 142.386C202.666 141.443 209.317 141.252 212.523 142.972C215.721 144.652 219.561 147.072 220.523 151.094L218.723 152.12C215.06 154.209 210.851 155.062 206.713 154.554C205.765 154.438 205.046 153.71 204.558 152.883C204.185 152.25 203.687 151.757 203.064 151.404C202.011 150.771 200.781 150.6 199.376 150.893C198.165 151.145 197.254 151.697 196.644 152.549C196.026 153.361 195.837 154.402 196.077 155.674C196.34 157.07 197.17 158.027 198.567 158.547C199.964 159.066 202.075 159.501 204.9 159.85C207.734 160.241 210.052 160.696 211.854 161.217C213.696 161.729 215.377 162.679 216.897 164.069C218.417 165.458 219.421 167.445 219.909 170.031C220.373 172.493 220.19 174.856 219.359 177.119C218.566 179.374 217.15 181.332 215.11 182.994C213.069 184.656 213.034 187.265 209.949 187.907Z" fill="black"/>
<path d="M192.835 148.504C192.341 149.101 191.91 149.725 191.542 150.377C190.04 153.039 189.638 156.09 190.277 159.474C190.81 162.301 191.891 164.546 193.577 166.124C193.765 166.3 193.956 166.47 194.15 166.634C195.612 167.87 197.216 168.737 198.96 169.222C200.857 169.75 203.232 170.166 206.075 170.477L206.079 170.478L206.083 170.478C208.015 170.669 209.477 170.885 210.489 171.122L210.494 171.123L210.5 171.124C211.514 171.345 212.361 171.708 213.058 172.198L213.067 172.204L213.077 172.211C213.717 172.633 214.12 173.246 214.284 174.113C214.485 175.176 214.283 176.015 213.736 176.718C213.163 177.404 212.25 177.924 210.889 178.208C209.605 178.475 208.57 178.317 207.722 177.81C207.699 177.796 207.677 177.781 207.655 177.766C207.441 177.622 207.218 177.468 206.988 177.308C206.256 176.801 205.452 176.243 204.634 175.826C203.536 175.265 202.282 174.883 200.909 175.169L198.693 175.63C197.246 175.932 196.01 176.833 195.32 178.015C194.619 179.215 194.481 180.718 195.286 182.089C195.872 183.088 196.573 183.981 197.391 184.769L197.395 184.772L197.399 184.776C199.335 186.591 201.669 187.775 204.38 188.333C207.077 188.888 209.98 188.832 213.076 188.188C216.262 187.524 218.951 186.325 221.113 184.564C223.257 182.818 224.771 180.737 225.62 178.323C226.504 175.914 226.696 173.399 226.206 170.798C225.694 168.086 224.625 165.923 222.945 164.388C221.341 162.922 219.553 161.907 217.585 161.359C215.733 160.825 213.375 160.363 210.523 159.97L210.517 159.969L210.512 159.969C207.703 159.621 205.666 159.195 204.357 158.709C203.202 158.279 202.58 157.537 202.373 156.442C202.164 155.334 202.347 154.552 202.783 153.979L202.791 153.969L202.798 153.959C203.265 153.307 203.978 152.849 205.03 152.63C206.273 152.371 207.293 152.53 208.147 153.045L208.156 153.05L208.165 153.055C208.511 153.251 208.857 153.468 209.224 153.698C209.316 153.755 209.41 153.814 209.506 153.874C209.969 154.163 210.463 154.462 210.973 154.717C211.987 155.225 213.161 155.606 214.44 155.34L217.051 154.796C218.52 154.49 219.766 153.568 220.453 152.365C221.15 151.144 221.27 149.621 220.428 148.248C219.244 146.314 217.638 144.814 215.625 143.757C212.216 141.928 208.15 141.545 203.488 142.516C198.9 143.471 195.321 145.45 192.835 148.504Z" fill="white" stroke="black" stroke-width="3.93939"/>
<path d="M191.07 159.308C191.581 162.017 192.601 164.086 194.129 165.517C194.307 165.684 194.489 165.846 194.672 166C196.17 158.464 193.676 152.712 192.241 150.777C190.852 153.239 190.462 156.083 191.07 159.308Z" fill="black" fill-opacity="0.03"/>
<path d="M153.662 164.194C153.964 157.005 155.515 151.403 158.315 147.387C161.154 143.374 166.789 140.651 172.675 140.925C182.191 140.661 184.399 143.655 186.849 147.915C189.339 152.176 187.491 158.566 187.188 165.754C186.882 173.027 186.428 178.722 183.588 182.736C181.652 186.148 183.25 190.666 169.865 188.697C163.644 187.781 159.368 185.754 156.878 181.493C154.427 177.233 153.355 171.467 153.662 164.194ZM177.166 165.288C177.344 161.067 177.043 157.807 176.263 155.509C175.485 153.17 173.724 151.936 170.98 151.809C168.236 151.681 166.377 152.746 165.406 155.004C164.436 157.22 163.862 160.439 163.684 164.66C163.564 167.503 163.624 169.871 163.862 171.767C164.103 173.621 164.676 175.155 165.581 176.37C166.528 177.545 167.956 178.176 169.865 178.265C171.774 178.354 173.229 177.856 174.231 176.772C175.275 175.648 175.995 174.174 176.39 172.35C176.788 170.484 177.046 168.13 177.166 165.288Z" fill="black"/>
<path d="M158.592 164.397C158.521 166.094 158.523 167.714 158.6 169.257L158.598 169.258L158.622 169.664C158.915 174.636 160 178.809 161.917 182.143L161.92 182.147C164.58 186.699 169.052 189.071 175.148 189.354C181.242 189.638 185.879 187.691 188.872 183.399C191.834 179.21 193.428 173.392 193.738 166.033C194.045 158.756 192.944 152.855 190.346 148.408C187.726 143.855 183.271 141.485 177.177 141.201C171.081 140.918 166.427 142.864 163.395 147.151L163.392 147.156C162.31 148.707 161.415 150.475 160.699 152.454L160.582 152.779L160.583 152.782C159.438 156.08 158.779 159.956 158.592 164.397ZM181.235 156.008L181.237 156.013C181.968 158.168 182.273 161.308 182.097 165.491C181.978 168.306 181.723 170.61 181.338 172.414C180.967 174.125 180.304 175.456 179.38 176.452L179.379 176.454C178.583 177.314 177.387 177.77 175.639 177.689C173.901 177.608 172.721 177.046 171.959 176.107C171.161 175.031 170.632 173.644 170.406 171.906C170.175 170.073 170.115 167.754 170.233 164.939C170.41 160.755 170.977 157.656 171.887 155.578L171.889 155.573C172.316 154.583 172.914 153.898 173.67 153.465C174.434 153.027 175.423 152.808 176.685 152.867C177.948 152.926 178.915 153.235 179.639 153.742C180.355 154.244 180.894 154.982 181.235 156.008Z" fill="white" stroke="black" stroke-width="3.93939"/>
<path d="M161.46 152.737C160.279 156.006 159.592 159.906 159.402 164.435C159.325 166.257 159.334 167.985 159.431 169.618C165.161 164.674 163.172 156.304 161.46 152.737Z" fill="black" fill-opacity="0.03"/>
<path d="M155.895 158.607C155.73 161.153 155.023 163.451 153.773 165.5C152.525 167.508 150.708 169.076 148.321 170.205C145.933 171.334 143.032 171.777 139.616 171.533L137.967 171.415C135.305 171.224 132.934 173.074 132.446 175.721L130.903 184.102C130.401 186.829 127.548 188.393 125.001 187.336C123.264 186.617 122.174 184.855 122.296 182.967L124.594 147.485C124.783 144.554 127.289 142.346 130.192 142.554L141.44 143.358C144.776 143.597 147.47 143.704 150.829 145.316C153.773 146.728 157.684 149.732 158.698 151.943C159.712 154.154 156.073 155.852 155.895 158.607ZM139.393 162.962C141.339 163.101 142.82 162.725 143.835 161.833C144.851 160.941 145.415 159.619 145.529 157.866C145.642 156.113 145.253 154.722 144.362 153.694C143.471 152.666 142.052 152.082 140.106 151.943L139.82 151.923C136.918 151.715 134.412 153.923 134.222 156.854L134.196 157.259C134.006 160.19 136.205 162.734 139.107 162.942L139.393 162.962Z" fill="black"/>
<path d="M159.509 168.408L159.51 168.405L159.512 168.402C160.835 166.234 161.579 163.806 161.752 161.135C161.938 158.262 161.504 155.639 160.425 153.288C159.338 150.917 157.603 149.004 155.251 147.551C152.888 146.091 149.972 145.257 146.542 145.012L134.081 144.121C131.402 143.929 129.089 145.967 128.914 148.673L126.597 184.46C126.422 187.166 128.451 189.514 131.13 189.706L133.234 189.856C135.912 190.048 138.226 188.01 138.401 185.305L138.894 177.691C139.011 175.888 140.553 174.529 142.339 174.657L144.612 174.819C148.126 175.071 151.173 174.62 153.716 173.417C156.226 172.23 158.169 170.564 159.509 168.408ZM148.351 163.684C147.557 164.382 146.322 164.747 144.494 164.616L142.996 164.509C141.21 164.381 139.857 162.816 139.974 161.012L140.158 158.157C140.275 156.353 141.818 154.995 143.603 155.122L145.102 155.23C146.93 155.36 148.106 155.898 148.803 156.701C149.514 157.522 149.873 158.676 149.769 160.278C149.665 161.88 149.161 162.973 148.351 163.684Z" fill="white" stroke="black" stroke-width="3.93939"/>
<path d="M87.1899 167.818C86.7618 160.636 87.7356 154.892 90.1115 150.585C92.5271 146.276 98.0059 141.858 103.886 141.471C113.32 140.142 117.815 143.785 120.684 147.747C123.593 151.705 125.203 157.352 125.631 164.533C126.065 171.799 126.106 175.684 123.691 179.993C122.111 183.603 119.063 189.086 105.19 190.051C98.9217 190.487 94.5024 187.161 91.5939 183.203C88.7252 179.242 87.623 175.083 87.1899 167.818ZM110.672 166.272C110.42 162.054 109.79 158.847 108.782 156.65C107.771 154.411 105.894 153.382 103.153 153.562C100.411 153.743 98.672 155.01 97.9348 157.364C97.1951 159.676 96.9509 162.941 97.2024 167.158C97.3717 169.998 97.6712 172.346 98.1011 174.204C98.5285 176.021 99.2538 177.482 100.277 178.588C101.338 179.65 102.821 180.119 104.729 179.993C106.636 179.868 108.032 179.21 108.919 178.019C109.842 176.785 110.408 175.239 110.617 173.38C110.823 171.481 110.841 169.111 110.672 166.272Z" fill="black"/>
<path d="M94.4649 148.676L94.4622 148.681C91.9833 153.174 91.0056 159.092 91.439 166.362C91.8773 173.713 93.552 179.5 96.5459 183.634L96.5492 183.638C99.6557 187.866 104.343 189.723 110.432 189.322C116.521 188.921 120.933 186.466 123.474 181.863C125.994 177.365 126.989 171.402 126.55 164.05C126.117 156.78 124.424 151.036 121.39 146.905C118.323 142.672 113.653 140.815 107.565 141.215C101.475 141.616 97.0449 144.073 94.4649 148.676ZM113.102 155.484L113.104 155.488C114.05 157.549 114.671 160.636 114.921 164.816C115.088 167.628 115.068 169.947 114.869 171.785C114.674 173.527 114.15 174.925 113.331 176.019L113.33 176.02C112.627 176.965 111.484 177.552 109.738 177.667C108 177.782 106.771 177.355 105.917 176.507C105.015 175.527 104.348 174.207 103.947 172.504C103.532 170.707 103.237 168.409 103.069 165.596C102.82 161.417 103.07 158.272 103.763 156.103L103.765 156.098C104.088 155.065 104.614 154.318 105.322 153.802C106.037 153.281 106.998 152.953 108.259 152.87C109.52 152.787 110.513 152.986 111.285 153.41C112.048 153.828 112.658 154.501 113.102 155.484Z" fill="white" stroke="black" stroke-width="3.93939"/>
<path d="M128.776 88.628C130.952 86.8147 132.686 85.3073 133.978 84.106C135.27 82.882 136.346 81.6127 137.208 80.298C138.069 78.9833 138.5 77.6913 138.5 76.422C138.5 75.266 138.228 74.3593 137.684 73.702C137.14 73.0447 136.301 72.716 135.168 72.716C134.034 72.716 133.162 73.1013 132.55 73.872C131.938 74.62 131.62 75.6513 131.598 76.966H126.974C127.064 74.246 127.869 72.1833 129.388 70.778C130.929 69.3727 132.878 68.67 135.236 68.67C137.82 68.67 139.803 69.3613 141.186 70.744C142.568 72.104 143.26 73.906 143.26 76.15C143.26 77.918 142.784 79.6067 141.832 81.216C140.88 82.8253 139.792 84.2307 138.568 85.432C137.344 86.6107 135.746 88.0387 133.774 89.716H143.804V93.66H127.008V90.124L128.776 88.628ZM157.785 74.892C160.029 74.892 161.842 75.606 163.225 77.034C164.608 78.4393 165.299 80.4113 165.299 82.95V94H160.539V83.596C160.539 82.1 160.165 80.9553 159.417 80.162C158.669 79.346 157.649 78.938 156.357 78.938C155.042 78.938 154 79.346 153.229 80.162C152.481 80.9553 152.107 82.1 152.107 83.596V94H147.347V75.164H152.107V77.51C152.742 76.694 153.546 76.0593 154.521 75.606C155.518 75.13 156.606 74.892 157.785 74.892ZM168.601 84.514C168.601 82.61 168.975 80.9213 169.723 79.448C170.494 77.9747 171.537 76.8413 172.851 76.048C174.166 75.2547 175.628 74.858 177.237 74.858C178.461 74.858 179.629 75.13 180.739 75.674C181.85 76.1953 182.734 76.898 183.391 77.782V68.84H188.219V94H183.391V91.212C182.802 92.1413 181.975 92.8893 180.909 93.456C179.844 94.0227 178.609 94.306 177.203 94.306C175.617 94.306 174.166 93.898 172.851 93.082C171.537 92.266 170.494 91.1213 169.723 89.648C168.975 88.152 168.601 86.4407 168.601 84.514ZM183.425 84.582C183.425 83.426 183.199 82.44 182.745 81.624C182.292 80.7853 181.68 80.1507 180.909 79.72C180.139 79.2667 179.311 79.04 178.427 79.04C177.543 79.04 176.727 79.2553 175.979 79.686C175.231 80.1167 174.619 80.7513 174.143 81.59C173.69 82.406 173.463 83.3807 173.463 84.514C173.463 85.6473 173.69 86.6447 174.143 87.506C174.619 88.3447 175.231 88.9907 175.979 89.444C176.75 89.8973 177.566 90.124 178.427 90.124C179.311 90.124 180.139 89.9087 180.909 89.478C181.68 89.0247 182.292 88.39 182.745 87.574C183.199 86.7353 183.425 85.738 183.425 84.582Z" fill="white"/>
<path d="M288.605 173.455C279.538 179.788 278.075 186.684 277.844 188.595C276.406 189.447 275.068 190.198 273.842 190.862C275.762 187.655 277.581 184.392 279.251 181.06C282.027 175.372 284.434 169.522 286.454 163.54C286.679 162.882 286.898 162.224 287.111 161.567C288.68 156.643 290.956 151.971 293.995 147.799C294.201 147.523 294.401 147.242 294.595 146.966L294.589 146.972C319.982 133.048 308.333 104.661 308.333 104.661C308.714 110.931 302.674 115.71 296.465 127.141C291.187 136.869 292.957 143.69 293.601 145.506C292.3 147.511 291.087 149.271 290.037 150.73C290.456 148.901 290.837 147.066 291.194 145.231C292.4 139.042 293.07 132.76 293.376 126.477L293.476 124.116C293.52 123.333 293.545 122.55 293.532 121.761L293.526 117.044C293.489 115.472 293.389 113.906 293.326 112.334C293.282 111.551 293.27 110.762 293.201 109.979L292.982 107.636C292.845 106.082 292.926 104.51 293.238 102.982L295.052 94.0123V94.0186C313.56 71.726 292.319 49.6087 292.319 49.6087C294.97 55.2962 291.112 61.9671 289.524 74.8829C288.18 85.8757 292.325 91.5632 293.595 93.0164C293.07 95.6221 292.532 97.8959 292.05 99.7499L291.844 98.2904C291.663 96.7308 291.3 95.2024 291.019 93.6553L290.575 91.3502C290.431 90.5797 290.281 89.8093 290.081 89.0514C289.324 86.0072 288.636 82.9506 287.667 79.9628L286.986 77.7141L286.648 76.5928L286.254 75.4842L284.678 71.062C283.678 68.4939 282.634 65.9383 281.514 63.4203C279.513 58.8978 278.263 54.0621 277.988 49.1263C277.919 47.9801 277.831 46.8526 277.719 45.7502L277.725 45.7565C287.686 18.5343 260.261 4.84171 260.261 4.84171C264.669 9.30774 263.268 16.8931 266.101 29.5897C268.521 40.3947 274.336 44.3596 276.012 45.3055C276.543 49.0011 276.831 52.0953 276.981 54.2626C276.937 54.1874 276.9 54.106 276.856 54.0309L275.749 51.9639C275.38 51.2811 274.949 50.6234 274.555 49.9532L272.135 45.9444L269.527 42.0609C269.084 41.4157 268.665 40.758 268.208 40.1254L266.814 38.2525C265.376 36.2481 263.856 34.3127 262.28 32.4147L262.287 32.421C260.092 29.6336 257.091 25.6186 254.483 22.7122C253.257 21.353 252.182 19.856 251.4 18.1961C239.989 -5.89427 212.126 0.876831 212.126 0.876831C218.385 1.27771 222.368 7.87959 232.917 15.465C241.258 21.4656 247.868 21.1086 250.275 20.6952C250.563 20.7892 250.913 20.9019 251.207 20.9959L254.395 24.3408C258.56 28.9321 262.549 33.6863 266.038 38.81L267.377 40.7016C267.808 41.3468 268.214 42.0045 268.633 42.656L271.116 46.577L272.166 48.4186C269.396 46.0634 266.607 44.0089 263.844 42.23L263.856 42.2362C248.83 17.4506 221.043 30.379 221.043 30.379C227.277 29.7151 232.317 35.5466 243.991 41.2466C253.933 46.0948 260.655 44.0152 262.437 43.2886C266.414 45.625 269.721 47.9111 271.635 49.2892C272.842 50.1598 273.861 51.281 274.536 52.6089C274.536 52.6152 274.542 52.6215 274.542 52.6278L275.587 54.701C278.469 60.1693 280.789 65.9132 282.877 71.7197L284.322 76.1106L284.684 77.213L284.985 78.328L285.597 80.5578C286.479 83.5143 287.079 86.5459 287.742 89.5525C287.923 90.2979 288.049 91.062 288.174 91.8199L288.18 91.8639C286.304 88.9763 284.334 86.3392 282.321 83.9527L282.327 83.959C275.199 55.8536 244.847 60.0754 244.847 60.0754C251.006 61.2655 254.127 68.3184 263.625 77.1879C271.71 84.7419 278.744 84.7232 280.664 84.5478C282.84 86.9217 284.622 89.0451 285.941 90.6862C287.767 92.9662 288.974 95.7097 289.243 98.6161C289.243 98.6349 289.243 98.6475 289.243 98.6663L289.768 103.251L289.899 104.398L289.974 105.55L290.124 107.855L290.275 110.154C290.331 110.924 290.318 111.689 290.343 112.459C290.368 114 290.425 115.535 290.418 117.069L290.306 121.679C290.3 122.443 290.256 123.214 290.2 123.978L290.037 126.277C289.787 129.59 289.437 132.904 288.955 136.192C288.299 133.43 287.536 130.799 286.673 128.325L286.679 128.331C290.031 99.5306 260.179 92.6217 260.179 92.6217C265.507 95.9353 265.907 103.64 271.616 115.322C276.481 125.268 283.059 127.768 284.91 128.294C285.622 130.085 286.235 131.739 286.748 133.205C288.011 136.806 288.28 140.696 287.461 144.417C287.455 144.435 287.448 144.46 287.442 144.473C286.135 150.461 284.522 156.38 282.396 162.118C280.282 167.862 277.819 173.462 274.999 178.88C274.161 180.446 273.286 181.993 272.385 183.534C272.904 180.283 273.198 177.157 273.31 174.157V174.169C286.967 148.601 261.718 131.213 261.718 131.213C265.463 136.255 263.018 143.565 264.056 156.537C264.944 167.574 270.153 172.315 271.685 173.48C271.685 173.906 271.685 174.32 271.678 174.727C271.641 181.748 269.496 188.62 265.432 194.339C265.413 194.37 265.394 194.395 265.376 194.426C261.862 199.412 257.916 204.066 253.758 208.501C252.695 209.585 251.694 210.731 250.581 211.764L247.292 214.927C247.242 214.884 247.255 214.896 247.205 214.852C248.205 213.073 249.106 211.301 249.918 209.56V209.566C272.398 191.301 255.852 165.469 255.852 165.469C257.347 171.57 252.263 177.358 248.211 189.722C244.76 200.239 247.724 206.628 248.68 208.3C248.018 209.891 247.38 211.351 246.78 212.648C245.323 215.829 243.178 218.661 240.42 220.815C240.408 220.828 240.389 220.84 240.377 220.847C235.637 224.636 230.697 228.175 225.476 231.245C222.437 233.042 219.336 234.727 216.178 236.299C217.497 234.946 218.717 233.575 219.836 232.209L219.83 232.215C241.365 222.262 233.436 198.404 233.436 198.404C233.398 203.546 228.196 207.117 222.481 216.111C217.616 223.759 218.679 229.434 219.104 230.956C218.404 231.89 217.735 232.754 217.11 233.537C215.052 236.118 212.401 238.178 209.369 239.463C209.35 239.469 209.337 239.481 209.325 239.481C203.747 241.824 198.032 243.797 192.223 245.413L192.154 245.432H192.142C190.566 245.883 189.403 247.286 189.366 248.927C189.303 251.733 191.892 253.518 194.312 252.779C200.414 250.913 206.398 248.67 212.207 246.058C218.01 243.415 223.6 240.333 228.984 236.951C232.229 234.921 235.368 232.723 238.407 230.405C242.534 227.255 247.492 225.382 252.67 224.937H252.657C279.682 235.329 293.764 208.069 293.764 208.069C289.237 212.416 281.689 210.894 268.971 213.549C258.154 215.804 254.102 221.567 253.139 223.233C250.537 223.571 248.236 223.784 246.342 223.928C248.061 222.413 249.725 220.834 251.4 219.275L254.746 215.886C255.878 214.777 256.897 213.556 257.972 212.397C262.187 207.662 266.17 202.707 269.684 197.439C269.753 197.333 269.828 197.226 269.896 197.12C271.622 194.539 273.98 192.453 276.743 191.044C277.194 190.818 277.637 190.58 278.081 190.349L278.075 190.355C307.001 189.271 309.246 158.66 309.246 158.66C306.795 164.436 299.254 166.008 288.605 173.455Z" fill="#5099CC"/>
<path d="M22.3922 173.455C31.4591 179.788 32.9224 186.684 33.1538 188.595C34.592 189.447 35.9301 190.198 37.1557 190.862C35.236 187.655 33.4226 184.392 31.7468 181.06C28.9705 175.372 26.5693 169.522 24.5433 163.54C24.3182 162.882 24.0993 162.224 23.8929 161.567C22.3172 156.643 20.041 151.971 17.0021 147.799C16.802 147.523 16.6019 147.242 16.4018 146.966L16.408 146.972C-8.98563 133.048 2.67012 104.661 2.67012 104.661C2.28243 110.931 8.32283 115.71 14.5321 127.141C19.8097 136.869 18.0401 143.69 17.3961 145.506C18.6967 147.511 19.9098 149.271 20.9603 150.73C20.5476 148.901 20.1599 147.066 19.8035 145.231C18.5966 139.042 17.9275 132.76 17.6211 126.477L17.5211 124.116C17.4773 123.333 17.4523 122.55 17.4648 121.761L17.471 117.044C17.5086 115.472 17.6086 113.906 17.6712 112.334C17.7149 111.551 17.7274 110.762 17.7962 109.979L18.0151 107.636C18.1589 106.082 18.0714 104.51 17.7587 102.982L15.9453 94.0123V94.0186C-2.5637 71.726 18.6779 49.6087 18.6779 49.6087C16.0266 55.2962 19.891 61.9671 21.473 74.8829C22.8174 85.8757 18.6717 91.5632 17.4023 93.0164C17.9275 95.6221 18.4716 97.8959 18.9468 99.7499L19.1531 98.2904C19.3345 96.7308 19.6972 95.2024 19.9786 93.6553L20.4225 91.3502C20.5663 90.5797 20.7164 89.8093 20.9165 89.0514C21.6731 86.0072 22.3672 82.9506 23.3365 79.9628L24.0118 77.7141L24.3494 76.5928L24.7434 75.4842L26.3254 71.062C27.3196 68.4939 28.3639 65.9383 29.4832 63.4203C31.4904 58.8978 32.7348 54.0621 33.0162 49.1263C33.0787 47.9801 33.1663 46.8526 33.2788 45.7502L33.2725 45.7565C23.3114 18.5343 50.7373 4.84171 50.7373 4.84171C46.3289 9.30774 47.7296 16.8931 44.897 29.5897C42.477 40.3947 36.668 44.3596 34.9859 45.3055C34.4544 49.0011 34.1667 52.0953 34.0167 54.2626C34.0604 54.1874 34.0979 54.106 34.1417 54.0309L35.2548 51.9639C35.6174 51.2811 36.0489 50.6234 36.4428 49.9532L38.8628 45.9444L41.4765 42.0609C41.9143 41.4157 42.3395 40.758 42.7897 40.1254L44.1841 38.2525C45.6286 36.2481 47.1418 34.3127 48.7176 32.4147L48.7113 32.421C50.9062 29.6336 53.9076 25.6186 56.5151 22.7122C57.7407 21.353 58.8162 19.856 59.5979 18.1961C71.0097 -5.89427 98.8733 0.876831 98.8733 0.876831C92.6203 1.27771 88.6308 7.87959 78.0819 15.465C69.7404 21.4656 63.1309 21.1086 60.7234 20.6952C60.4358 20.7892 60.0856 20.9019 59.798 20.9959L56.6027 24.3408C52.4444 28.9321 48.4487 33.6863 44.9657 38.81L43.6213 40.7016C43.1899 41.3468 42.7834 42.0045 42.3645 42.656L39.882 46.577L38.8315 48.4186C41.6016 46.0634 44.3904 44.0089 47.1543 42.23L47.1418 42.2362C62.1679 17.4506 89.9627 30.379 89.9627 30.379C83.7222 29.7151 78.6822 35.5466 67.0077 41.2466C57.0716 46.0948 50.3496 44.0152 48.5612 43.2886C44.5843 45.625 41.2765 47.9111 39.363 49.2892C38.1562 50.1598 37.1369 51.281 36.4679 52.6089C36.4616 52.6152 36.4553 52.6215 36.4553 52.6278L35.4111 54.701C32.5284 60.1693 30.2086 65.9132 28.12 71.7197L26.6756 76.1106L26.3129 77.213L26.0128 78.328L25.4 80.5578C24.5245 83.5143 23.9242 86.5459 23.2551 89.5525C23.0738 90.2979 22.9488 91.062 22.8237 91.8199L22.8174 91.8639C24.6933 88.9763 26.663 86.3392 28.6765 83.9527L28.6703 83.959C35.7988 55.8536 66.1511 60.0754 66.1511 60.0754C59.9918 61.2655 56.8778 68.3184 47.3732 77.1879C39.288 84.7419 32.2533 84.7232 30.3336 84.5478C28.1575 86.9217 26.3754 89.0451 25.056 90.6862C23.2302 92.9662 22.0233 95.7097 21.7607 98.6161C21.7544 98.6349 21.7544 98.6475 21.7544 98.6663L21.2292 103.251L21.0978 104.398L21.0228 105.55L20.8727 107.855L20.7226 110.154C20.6726 110.924 20.6789 111.689 20.6539 112.459C20.6351 114 20.5726 115.535 20.5788 117.069L20.6914 121.679C20.6976 122.443 20.7414 123.214 20.804 123.978L20.9603 126.277C21.2104 129.59 21.5606 132.904 22.0421 136.192C22.6986 133.43 23.4615 130.799 24.3244 128.325L24.3181 128.331C20.9665 99.5306 50.8186 92.6217 50.8186 92.6217C45.491 95.9353 45.0971 103.64 39.3818 115.322C34.5169 125.268 27.9387 127.768 26.0878 128.294C25.375 130.085 24.7621 131.739 24.2494 133.205C22.9863 136.806 22.7174 140.696 23.5428 144.417C23.5428 144.435 23.5491 144.46 23.5553 144.473C24.8685 150.461 26.4754 156.38 28.6015 162.118C30.715 167.862 33.185 173.462 35.9989 178.88C36.8431 180.446 37.7185 181.993 38.6127 183.534C38.0937 180.283 37.806 177.157 37.6872 174.157V174.169C24.0305 148.601 49.2803 131.213 49.2803 131.213C45.5348 136.255 47.986 143.565 46.9417 156.537C46.0538 167.574 40.8512 172.315 39.3192 173.48C39.313 173.906 39.313 174.32 39.3192 174.727C39.363 181.748 41.5078 188.62 45.5661 194.339C45.5848 194.37 45.6036 194.395 45.6286 194.426C49.1366 199.412 53.0822 204.066 57.2405 208.501C58.3035 209.585 59.304 210.731 60.4233 211.764L63.7061 214.927C63.7562 214.884 63.7437 214.896 63.7937 214.852C62.7932 213.073 61.8928 211.301 61.0799 209.56V209.566C38.6001 191.301 55.152 165.469 55.152 165.469C53.6512 171.57 58.735 177.358 62.7869 189.722C66.2449 200.239 63.2809 206.628 62.318 208.3C62.9808 209.891 63.6249 211.351 64.2189 212.648C65.6759 215.829 67.8207 218.661 70.5783 220.815C70.597 220.828 70.6095 220.84 70.622 220.847C75.3618 224.636 80.3018 228.175 85.5293 231.245C88.562 233.042 91.6635 234.727 94.8213 236.299C93.5082 234.946 92.2826 233.575 91.1633 232.209L91.1696 232.215C69.6341 222.262 77.5629 198.404 77.5629 198.404C77.6004 203.546 82.8092 207.117 88.5182 216.111C93.3831 223.759 92.3201 229.434 91.8949 230.956C92.5952 231.89 93.2643 232.754 93.8896 233.537C95.9469 236.118 98.5982 238.178 101.631 239.463C101.65 239.469 101.662 239.481 101.681 239.481C107.252 241.824 112.968 243.797 118.777 245.413L118.846 245.432H118.858C120.434 245.883 121.597 247.286 121.634 248.927C121.697 251.733 119.108 253.518 116.688 252.779C110.585 250.913 104.601 248.67 98.792 246.058C92.9892 243.415 87.399 240.333 82.0151 236.951C78.7697 234.921 75.6307 232.723 72.5917 230.405C68.4647 227.255 63.506 225.382 58.3285 224.937H58.341C31.3153 235.329 17.2334 208.069 17.2334 208.069C21.7607 212.416 29.3081 210.894 42.0268 213.549C52.8508 215.804 56.8965 221.567 57.8658 223.233C60.467 223.571 62.7682 223.784 64.6566 223.928C62.9433 222.413 61.2737 220.834 59.5979 219.275L56.2588 215.886C55.1207 214.777 54.1077 213.556 53.0259 212.397C48.8114 207.662 44.8282 202.707 41.314 197.439C41.2452 197.333 41.1701 197.226 41.1014 197.12C39.3755 194.539 37.0181 192.453 34.2543 191.044C33.804 190.818 33.3601 190.58 32.9161 190.349L32.9224 190.355C4.002 189.271 1.75091 158.66 1.75091 158.66C4.2021 164.436 11.7433 166.008 22.3922 173.455Z" fill="#5099CC"/>
</svg>
