<svg width="222" height="224" viewBox="0 0 222 224" fill="none" xmlns="http://www.w3.org/2000/svg">
<path d="M56.3004 140.973L51.6608 162.974L17.3255 140.433L0.625 121.98V105.392L39.5894 87.734L54.4739 86.1874L56.3004 140.973Z" fill="#1C4B7E"/>
<path d="M221.45 128.127V144.98L207.667 158.898L172.944 170.667L142.188 172.542L141.736 172.499L158.101 149.534L159.686 113.424L139.27 93.626L131.523 90.2576L122.622 86.3806L132.646 87.1962L177.982 100.31L205.82 113.689L221.45 128.127Z" fill="#1C4B7E"/>
<path d="M221.448 128.126L205.818 113.688L177.98 100.309L132.644 87.1956L122.62 86.38H122.609L118.232 86.0198L83.3298 83.1809L65.2437 85.0665L54.4739 86.1893L39.5894 87.7359L0.625 105.394L8.24574 93.6042L48.3438 76.7618L58.3997 76.3487L94.2046 74.8869L140.338 79.982L168.26 88.5515L183.019 93.0852L210.856 111.008L221.448 128.126Z" fill="#255B8F"/>
<path d="M123.543 97.8099L118.231 86.0202L83.3398 83.1813L65.2537 85.0668L63.1019 140.795L67.6995 146.865L80.6001 137.967L90.3202 137.607L111.839 148.178L126.02 140.085L123.543 97.8099ZM80.5896 126.23C80.5896 130.022 77.5456 133.094 73.7877 133.094C70.0298 133.094 66.9857 130.022 66.9857 126.23V118.561C66.9857 114.769 70.0298 111.697 73.7877 111.697C75.6666 111.697 77.3671 112.47 78.5953 113.709C79.8234 114.949 80.5791 116.665 80.5791 118.561V126.23H80.5896ZM116.804 126.23C116.804 130.022 113.76 133.094 110.002 133.094C106.244 133.094 103.2 130.022 103.2 126.23V118.561C103.2 114.769 106.244 111.697 110.002 111.697C111.881 111.697 113.581 112.47 114.809 113.709C116.038 114.949 116.804 116.665 116.804 118.561V126.23Z" fill="#FFE97F"/>
<path d="M67.6853 146.864L111.825 148.177L126.006 140.085L123.539 97.8091L118.228 86.0194L122.605 86.3795H122.615L131.517 90.2565L137.143 140.974L121.503 170.359L102.209 206.607L96.8455 223.375L67.6853 199.287L50.7223 167.456L51.6565 162.975L56.2961 140.974L54.4697 86.1888L65.2395 85.066L63.0981 140.794L67.6853 146.864Z" fill="white"/>
<path d="M159.685 113.422L158.1 149.532L141.735 172.497L136.361 180.029L127.344 186.713L96.8508 223.374L102.215 206.606L121.508 170.357L137.148 140.973L131.522 90.2553L139.269 93.6238L159.685 113.422Z" fill="#BFC6CD"/>
<path d="M80.5937 118.558V126.227C80.5937 130.019 77.5496 133.091 73.7917 133.091C70.0338 133.091 66.9897 130.019 66.9897 126.227V118.558C66.9897 114.766 70.0338 111.694 73.7917 111.694C75.6706 111.694 77.3711 112.467 78.5993 113.707C79.8379 114.946 80.5937 116.662 80.5937 118.558Z" fill="#151D26"/>
<path d="M116.802 118.558V126.227C116.802 130.019 113.758 133.091 110 133.091C106.242 133.091 103.198 130.019 103.198 126.227V118.558C103.198 114.766 106.242 111.694 110 111.694C111.879 111.694 113.579 112.467 114.807 113.707C116.035 114.946 116.802 116.662 116.802 118.558Z" fill="#151D26"/>
<path d="M164.459 23.2574L140.065 56.4338L140.337 79.9814L94.2037 74.8863L58.3988 76.3481L73.7873 38.7757L116.803 5.87473L150.666 0.25L185.138 9.61396L186.985 13.6286L164.459 23.2574Z" fill="#255B8F"/>
<path d="M162.34 48.1395L168.26 88.5507L140.339 79.9813L140.066 56.4336L164.46 23.2573L186.987 13.6284L168.166 28.0769L162.34 48.1395Z" fill="#1C4B7E"/>
<path opacity="0.7" d="M54.4732 86.1896L54.7147 93.5622L82.8672 90.2573L116.09 89.8759L134.648 93.5622L145.166 99.3458L139.267 93.6257L122.619 86.3803L83.3291 83.1813L54.4732 86.1896Z" fill="#848589"/>
<path d="M150.666 0.25L120.509 7.99328L87.1078 38.4898L80.5892 75.4477L58.3988 76.3481L73.7873 38.7757L116.803 5.87473L150.666 0.25Z" fill="#4F99CB"/>
<path d="M0.625 105.394L39.5894 87.7362L66.9863 79.9824H116.804C116.804 79.9824 142.385 80.2048 140.328 79.9824C138.281 79.7599 94.2046 74.8979 94.2046 74.8979L48.3438 76.7727L8.24574 93.6152L0.625 105.394Z" fill="#4F99CB"/>
<path opacity="0.5" d="M54.4739 86.1874L39.5894 87.734L0.625 105.392V121.98L17.3255 140.433L51.6608 162.974L31.1709 131.726L31.9686 115.678L55.0512 103.591L54.4739 86.1874Z" fill="#1E4777"/>
<path opacity="0.5" d="M122.622 86.3806L132.646 87.1962L177.982 100.31L205.82 113.689L178.171 111.697L159.686 113.424L139.27 93.626L122.622 86.3806Z" fill="#1E4777"/>
<path d="M66.9897 118.559L73.7917 122.394L66.9897 126.228V118.559Z" fill="white"/>
<path d="M103.198 118.559L110 122.394L103.198 126.228V118.559Z" fill="white"/>
</svg>
